<svg width="50" height="50" viewBox="0 0 50 50" fill="none" xmlns="http://www.w3.org/2000/svg">
<path d="M16.875 2.81248C11.3281 4.53123 4.45315 11.5625 2.81252 17.1875C0.156272 26.1719 1.87502 33.2812 8.51565 39.9219C15.1563 46.5625 22.2656 48.2812 31.25 45.625C37.1094 43.9062 43.9063 37.1094 45.625 31.25C48.2813 22.2656 46.5625 15.1562 39.9219 8.5156C33.2813 1.9531 25.8594 0.0781031 16.875 2.81248ZM34.5313 6.0156C41.7188 9.99998 45.9375 18.125 45.0781 26.4062C43.9063 37.7344 33.4375 46.25 22.0313 45.0781C10.7031 43.9062 2.18752 33.4375 3.3594 22.0312C4.21877 14.0625 10.5469 6.3281 18.2813 3.90623C22.7344 2.5781 30 3.5156 34.5313 6.0156Z" fill="black"/>
<path d="M16.7969 8.125C12.1094 10.3125 10 12.5 7.89065 17.1875C5.62502 22.1875 5.78127 26.9531 8.43752 32.0312C9.6094 34.375 11.0156 36.4062 11.6406 36.5625C12.3438 36.7969 12.5781 36.5625 12.3438 35.8594C11.7969 34.5312 13.6719 32.0312 16.5625 30.1562C18.6719 28.8281 18.75 28.8281 20.7813 30.3906C23.4375 32.4219 25 32.4219 27.6563 30.3906C29.6875 28.8281 29.7656 28.8281 31.875 30.1562C34.7656 32.0312 36.6406 34.5312 36.0938 35.8594C35.8594 36.5625 36.0938 36.7969 36.7969 36.5625C38.75 36.0156 42.1875 28.125 42.1875 24.2969C42.1875 20.3125 39.4531 13.75 36.7969 11.4062C34.1406 8.98438 33.9844 10.625 36.5625 13.6719C40.7031 18.2812 41.6406 26.25 38.8281 31.7188C37.8906 33.5156 37.6563 33.5938 36.7188 32.4219C35.8594 31.3281 35.8594 31.0156 36.7188 30.4688C37.5 30 37.4219 29.0625 36.1719 25.7031C35.2344 23.3594 34.0625 19.9219 33.5156 18.0469C32.1875 13.9062 29.6094 11.7969 25.1563 11.1719C18.9844 10.3125 16.0156 12.7344 14.1406 20.3125C13.5938 22.2656 12.6563 25.1562 11.9531 26.7969C10.8594 29.2969 10.8594 29.9219 11.7188 30.4688C12.6563 31.0156 12.6563 31.3281 11.7188 32.4219C10.7813 33.5938 10.5469 33.5156 9.6094 31.7188C9.06252 30.625 8.3594 28.2031 8.12502 26.4062C6.7969 16.5625 14.6094 7.8125 24.8438 7.8125C26.1719 7.8125 27.3438 7.42188 27.3438 7.03125C27.3438 5.54688 20.7031 6.25 16.7969 8.125ZM29.6875 14.4531C30.5469 15.2344 31.7969 17.8906 32.5 20.2344C33.125 22.6562 34.2188 25.625 34.8438 26.7969C36.4063 29.6094 35.8594 30.1562 32.8906 28.8281C30.2344 27.6562 30.0781 27.1875 31.3281 25.0781C32.3438 23.5156 31.6406 19.5312 30.3906 19.5312C29.8438 19.5312 29.6875 20.3125 30 21.4062C30.5469 23.6719 28.5938 27.8125 26.0938 29.4531C24.375 30.5469 24.0625 30.5469 22.3438 29.4531C19.6875 27.6562 17.9688 23.8281 18.4375 20.8594C18.8281 18.5156 18.8281 18.4375 17.6563 19.8438C16.25 21.5625 16.0156 24.6875 17.1875 25.3906C18.6719 26.3281 17.9688 27.7344 15.5469 28.8281C12.5781 30.1562 12.1094 29.6094 13.5938 26.6406C14.2969 25.3906 15.2344 22.5 15.7031 20.2344C16.25 17.8125 17.3438 15.3906 18.5156 14.2188C20.1563 12.5781 20.9375 12.3438 24.2969 12.6562C26.4844 12.8906 28.8281 13.6719 29.6875 14.4531Z" fill="black"/>
<path d="M20.0781 17.6563C18.9062 18.9063 19.7656 19.2188 24.375 19.375C27.4219 19.5313 28.9844 19.2969 28.5156 18.9063C27.5 17.8906 20.7812 16.9531 20.0781 17.6563Z" fill="black"/>
<path d="M29.6875 7.81249C29.6875 8.74999 31.875 9.76562 32.5 9.14062C32.7344 8.90624 32.1875 8.35937 31.3281 7.81249C30.1562 7.26562 29.6875 7.26562 29.6875 7.81249Z" fill="black"/>
<path d="M15.7031 37.8125C15.0781 38.5156 14.8437 39.2969 15.1562 39.6094C15.8594 40.3125 17.4219 38.5938 17.0312 37.5C16.875 36.875 16.4062 36.9531 15.7031 37.8125Z" fill="black"/>
<path d="M31.25 37.6562C31.25 39.0625 32.6562 40.3125 33.4375 39.5312C33.6719 39.2187 33.2812 38.4375 32.5781 37.7343C31.3281 36.4843 31.25 36.4843 31.25 37.6562Z" fill="black"/>
<path d="M19.5312 40.3125C19.5312 40.9375 19.9219 41.25 20.3125 41.0156C20.7812 40.7813 21.0938 40.2344 21.0938 39.7656C21.0938 39.375 20.7812 39.0625 20.3125 39.0625C19.9219 39.0625 19.5312 39.6094 19.5312 40.3125Z" fill="black"/>
<path d="M23.4375 40.625C23.4375 41.4844 23.8281 42.1875 24.2188 42.1875C24.6875 42.1875 25 41.4844 25 40.625C25 39.7656 24.6875 39.0625 24.2188 39.0625C23.8281 39.0625 23.4375 39.7656 23.4375 40.625Z" fill="black"/>
<path d="M27.3438 39.7656C27.3438 40.2344 27.7344 40.7813 28.125 41.0156C28.5938 41.25 28.9062 40.9375 28.9062 40.3125C28.9062 39.6094 28.5938 39.0625 28.125 39.0625C27.7344 39.0625 27.3438 39.375 27.3438 39.7656Z" fill="black"/>
</svg>
