<svg width="45" height="45" viewBox="0 0 45 45" fill="none" xmlns="http://www.w3.org/2000/svg">
<path d="M4.875 8.625C4.125 9.375 3.75 13.875 3.75 22.6875C3.75 34.5 3.9375 35.625 5.53125 36.5625C6.5625 37.125 13.9688 37.5 22.875 37.5C35.625 37.5 38.5312 37.2188 39.75 36C40.9688 34.875 41.25 32.25 41.25 22.875C41.25 16.4062 40.7812 10.3125 40.3125 9.28125C39.375 7.59375 38.1562 7.5 22.6875 7.5C10.9688 7.5 5.625 7.875 4.875 8.625ZM38.4375 22.5V34.6875H22.5H6.5625V22.5V10.3125H22.5H38.4375V22.5Z" fill="black"/>
<path d="M12.5625 17.25C11.625 19.6875 12.9375 21.75 15.1875 21.375C16.7812 21.1875 17.3437 20.4375 17.3437 18.75C17.3437 17.0625 16.7812 16.3125 15.1875 16.125C13.9687 15.9375 12.8437 16.4062 12.5625 17.25Z" fill="black"/>
<path d="M23.4375 19.2188C23.4375 20.3438 24.6562 20.625 29.0625 20.625C33.4688 20.625 34.6875 20.3438 34.6875 19.2188C34.6875 18.0938 33.4688 17.8125 29.0625 17.8125C24.6562 17.8125 23.4375 18.0938 23.4375 19.2188Z" fill="black"/>
<path d="M10.3125 25.125C10.3125 27.4688 12.1875 29.0625 15 29.0625C17.8125 29.0625 19.6875 27.4688 19.6875 25.125C19.6875 23.7188 18.8438 23.4375 15 23.4375C11.1562 23.4375 10.3125 23.7188 10.3125 25.125Z" fill="black"/>
<path d="M23.4375 25.7812C23.4375 26.9062 24.6562 27.1875 29.0625 27.1875C33.4688 27.1875 34.6875 26.9062 34.6875 25.7812C34.6875 24.6562 33.4688 24.375 29.0625 24.375C24.6562 24.375 23.4375 24.6562 23.4375 25.7812Z" fill="black"/>
</svg>
