<svg width="70" height="45" viewBox="0 0 70 45" fill="none" xmlns="http://www.w3.org/2000/svg">
<path d="M63.4375 0C67.0605 0 70 2.51836 70 5.625C70 7.39453 69.0293 9.05859 67.375 10.125L37.625 29.25C36.0664 30.2461 33.9336 30.2461 32.375 29.25L2.625 10.125C0.972481 9.05859 0 7.39453 0 5.625C0 2.51836 2.93809 0 6.5625 0H63.4375ZM29.75 32.25C32.8672 34.2539 37.1328 34.2539 40.25 32.25L70 13.125V37.5C70 41.6367 66.0762 45 61.25 45H8.75C3.91699 45 0 41.6367 0 37.5V13.125L29.75 32.25Z" fill="#6F8E8D"/>
</svg>
