<svg viewBox="0 0 47 68" fill="none" xmlns="http://www.w3.org/2000/svg">
<path d="M46.931 51.3966L44.7965 64.7834C44.4967 66.6759 43.3469 68 42.0001 68C18.8385 67.9973 0 40.7456 0 7.2387C0 5.29176 0.91521 3.62638 2.22353 3.19476L11.4775 0.107026C12.8252 -0.344779 14.2023 0.667201 14.7623 2.51347L19.0331 16.9229C19.5324 18.6202 19.1956 20.5976 18.2087 21.7637L13.2659 27.5049C16.3855 36.6977 21.5523 44.172 27.9089 48.6874L31.9557 41.5424C32.7533 40.1108 34.1306 39.6154 35.3038 40.3505L45.2647 46.5273C46.4628 47.439 47.2431 49.4577 46.931 51.3966Z" fill="#BB5A3A"/>
</svg>
