<svg width="30" height="45" viewBox="0 0 30 45" fill="none" xmlns="http://www.w3.org/2000/svg">
<g clip-path="url(#clip0_18_112)">
<path d="M29.1666 4.67655H21.6666V3.73927C21.6666 3.49066 21.5791 3.2521 21.4228 3.07632C21.2663 2.90054 21.0545 2.80166 20.8335 2.80166H18.2249C17.9746 1.72407 17.3114 0.827285 16.4149 0.354544C15.5184 -0.118181 14.4816 -0.118181 13.5851 0.354544C12.6886 0.827269 12.0254 1.72407 11.7751 2.80166H9.16657C8.7065 2.80166 8.33343 3.22134 8.33343 3.73927V4.67655H0.833429C0.37305 4.67655 0 5.09655 0 5.61416V44.0514C0 44.3 0.0878929 44.5386 0.244143 44.7143C0.400393 44.8902 0.612443 44.989 0.833429 44.989H29.1663C29.3873 44.989 29.5994 44.8902 29.7556 44.7143C29.9119 44.5386 29.9997 44.3 29.9997 44.0514V5.61416C29.9997 5.36555 29.9119 5.12699 29.7556 4.95121C29.5994 4.77543 29.3873 4.67655 29.1663 4.67655H29.1666ZM10.0002 4.67655H12.5002C12.7212 4.67655 12.9333 4.57799 13.0895 4.40221C13.2458 4.22611 13.3336 3.98787 13.3336 3.73926C13.3336 3.06941 13.6511 2.45041 14.1668 2.11548C14.6824 1.78055 15.318 1.78055 15.8336 2.11548C16.3493 2.45041 16.6668 3.0694 16.6668 3.73926C16.6668 3.98787 16.7547 4.22611 16.9109 4.40221C17.0672 4.57799 17.2792 4.67655 17.5002 4.67655H20.0002V6.55177H10.0002V4.67655ZM28.3338 43.1146H1.66665V6.55209H8.33321L8.3335 7.48937C8.3335 7.73798 8.42114 7.97654 8.57736 8.15231C8.73393 8.32813 8.94564 8.42697 9.16664 8.42697H20.8338C21.0548 8.42697 21.2666 8.32813 21.4231 8.15231C21.5794 7.97654 21.6669 7.73798 21.6669 7.48937V6.55209H28.3335L28.3338 43.1146Z" fill="black"/>
<path d="M10.0002 32.8014H5.00024C4.54014 32.8014 4.16681 33.2214 4.16681 33.739V39.364C4.16681 39.6126 4.2547 39.8512 4.41095 40.0269C4.5672 40.2028 4.77925 40.3016 5.00024 40.3016H10.0002C10.2212 40.3016 10.4333 40.2028 10.5895 40.0269C10.7458 39.8512 10.8337 39.6126 10.8337 39.364V33.739C10.8337 33.4904 10.7458 33.2519 10.5895 33.0761C10.4333 32.9003 10.2212 32.8014 10.0002 32.8014ZM9.1668 38.4264H5.83367V34.6766H9.16709L9.1668 38.4264Z" fill="black"/>
<path d="M10.0002 22.4891H5.00024C4.54014 22.4891 4.16681 22.9088 4.16681 23.4267V29.0517C4.16681 29.3004 4.2547 29.5386 4.41095 29.7147C4.5672 29.8905 4.77925 29.989 5.00024 29.989H10.0002C10.2212 29.989 10.4333 29.8905 10.5895 29.7147C10.7458 29.5386 10.8337 29.3004 10.8337 29.0517V23.4267C10.8337 23.1781 10.7458 22.9396 10.5895 22.7638C10.4333 22.5881 10.2212 22.4891 10.0002 22.4891ZM9.1668 28.1141H5.83367V24.364H9.16709L9.1668 28.1141Z" fill="black"/>
<path d="M25.0002 16.8641H14.1666C13.7066 16.8641 13.3335 17.2838 13.3335 17.8017C13.3335 18.3194 13.7066 18.739 14.1666 18.739H25.0002C25.4603 18.739 25.8336 18.3193 25.8336 17.8017C25.8336 17.2838 25.4603 16.8641 25.0002 16.8641Z" fill="black"/>
<path d="M14.1666 13.1139C13.7066 13.1139 13.3335 13.5339 13.3335 14.0515C13.3335 14.5691 13.7066 14.9891 14.1666 14.9891H25.0002C25.4603 14.9891 25.8336 14.5691 25.8336 14.0515C25.8336 13.5339 25.4603 13.1139 25.0002 13.1139H14.1666Z" fill="black"/>
<path d="M25.0002 27.1764H14.1666C13.7066 27.1764 13.3335 27.5964 13.3335 28.114C13.3335 28.6316 13.7066 29.0516 14.1666 29.0516H25.0002C25.4603 29.0516 25.8336 28.6316 25.8336 28.114C25.8336 27.5964 25.4603 27.1764 25.0002 27.1764Z" fill="black"/>
<path d="M25.0002 23.4269H14.1666C13.7066 23.4269 13.3335 23.8466 13.3335 24.3642C13.3335 24.8821 13.7066 25.3018 14.1666 25.3018H25.0002C25.4603 25.3018 25.8336 24.8821 25.8336 24.3642C25.8336 23.8466 25.4603 23.4269 25.0002 23.4269Z" fill="black"/>
<path d="M25.0002 37.4894H14.1666C13.7066 37.4894 13.3335 37.9091 13.3335 38.4267C13.3335 38.9446 13.7066 39.3643 14.1666 39.3643H25.0002C25.4603 39.3643 25.8336 38.9446 25.8336 38.4267C25.8336 37.9091 25.4603 37.4894 25.0002 37.4894Z" fill="black"/>
<path d="M25.0002 33.7391H14.1666C13.7066 33.7391 13.3335 34.1588 13.3335 34.6767C13.3335 35.1944 13.7066 35.614 14.1666 35.614H25.0002C25.4603 35.614 25.8336 35.1943 25.8336 34.6767C25.8336 34.1588 25.4603 33.7391 25.0002 33.7391Z" fill="black"/>
<path d="M9.40807 13.3855L6.66644 16.4792L5.59136 15.2604L5.59164 15.2607C5.26464 14.8931 4.73507 14.8931 4.40807 15.2607C4.08134 15.6282 4.08134 16.2243 4.40807 16.5919C7.14971 19.6668 6.07464 19.7795 10.5914 14.717H10.5916C10.9184 14.3491 10.9184 13.7533 10.5916 13.3855C10.2646 13.0179 9.73507 13.0179 9.40807 13.3855Z" fill="black"/>
</g>
<defs>
<clipPath id="clip0_18_112">
<rect width="30" height="45" fill="white"/>
</clipPath>
</defs>
</svg>
