<svg width="64" height="64" viewBox="0 0 64 64" fill="none" xmlns="http://www.w3.org/2000/svg">
<path d="M41.5744 13.2608C38.5248 10.5116 34.4383 9.2108 30.3607 9.69117C26.5878 10.1419 23.1438 12.0572 20.7707 15.024C18.3975 17.9908 17.2854 21.7715 17.6743 25.5511C18.0633 29.3304 19.9218 32.8054 22.8496 35.227C23.8593 36.0959 24.4279 37.3705 24.4004 38.7027V41.4831C24.4036 43.212 25.0925 44.8691 26.3161 46.0906C27.5396 47.3124 29.1975 47.9988 30.9264 47.9996H33.0743C34.8032 47.9988 36.4611 47.3124 37.6846 46.0906C38.9082 44.8692 39.5972 43.2121 39.6004 41.4831V38.7027C39.5921 37.3392 40.189 36.042 41.23 35.1613C44.4468 32.4574 46.3325 28.491 46.3985 24.2896C46.4646 20.0878 44.7046 16.0642 41.5746 13.2605L41.5744 13.2608ZM19.2631 22.774C19.5492 19.8593 20.8234 17.1303 22.8741 15.04C24.9249 12.9497 27.6288 11.6236 30.5373 11.2818C30.7598 11.2569 30.9791 11.2583 31.2002 11.2447V14.3997C30.0569 14.3997 29.0005 15.0097 28.4288 15.9997C27.8574 16.9897 27.8574 18.2097 28.4288 19.1997C29.0006 20.1897 30.057 20.7997 31.2002 20.7997V25.5997H28.0002C28.0002 24.4565 27.3902 23.4001 26.4002 22.8284C25.4102 22.2569 24.1902 22.2569 23.2002 22.8284C22.2102 23.4001 21.6002 24.4566 21.6002 25.5997H19.3009C19.1859 24.6619 19.1735 23.7144 19.2631 22.774V22.774ZM23.8699 33.9941C21.7571 32.243 20.2596 29.8623 19.5963 27.1995H22.4003C22.6124 27.1995 22.816 27.1152 22.966 26.9652C23.116 26.8152 23.2003 26.6116 23.2003 26.3995V25.5995C23.2003 25.0277 23.5053 24.4995 24.0003 24.2138C24.4953 23.9281 25.1053 23.9281 25.6003 24.2138C26.0953 24.4995 26.4003 25.0277 26.4003 25.5995V26.3995C26.4003 26.6116 26.4846 26.8152 26.6345 26.9652C26.7845 27.1152 26.9881 27.1995 27.2003 27.1995H31.2003V29.5995C30.057 29.5995 29.0006 30.2095 28.4289 31.1995C27.8574 32.1895 27.8574 33.4095 28.4289 34.3995C29.0007 35.3895 30.0571 35.9995 31.2003 35.9995V38.3995H25.9845C25.9342 36.6981 25.166 35.0973 23.8699 33.9941ZM33.074 46.3991H30.9262C29.194 46.3976 27.5901 45.4863 26.7019 43.9991H37.2985C36.4102 45.4863 34.8063 46.3976 33.0742 46.3991H33.074ZM38.0001 41.4827C37.9993 41.7902 37.9694 42.097 37.9111 42.3991H26.0894C26.0313 42.0969 26.0012 41.7902 26.0005 41.4827V39.9991H38.0005L38.0001 41.4827ZM40.2008 33.9359C38.8804 35.0527 38.0883 36.6713 38.0164 38.3991H32.8V35.1991C32.8 34.987 32.7157 34.7834 32.5657 34.6333C32.4157 34.4834 32.2121 34.3991 32 34.3991H31.2C30.6282 34.3991 30.1 34.0941 29.8143 33.5991C29.5286 33.1041 29.5286 32.4941 29.8143 31.9991C30.1 31.5041 30.6282 31.1991 31.2 31.1991H32C32.2121 31.1991 32.4157 31.1148 32.5657 30.9649C32.7157 30.8148 32.8 30.6112 32.8 30.3991V27.1991H36.8C37.0121 27.1991 37.2157 27.1148 37.3657 26.9649C37.5157 26.8148 37.6 26.6112 37.6 26.3991V25.5991C37.6 25.0273 37.905 24.4991 38.4 24.2134C38.895 23.9277 39.505 23.9277 40 24.2134C40.495 24.4991 40.8 25.0273 40.8 25.5991V26.3991C40.8 26.6112 40.8843 26.8148 41.0342 26.9649C41.1843 27.1148 41.3879 27.1991 41.6 27.1991H44.4014C43.7476 29.832 42.2772 32.1902 40.2008 33.9359ZM42.4001 25.5991C42.4001 24.4559 41.7901 23.3994 40.8001 22.8277C39.8101 22.2563 38.5901 22.2563 37.6001 22.8277C36.6101 23.3995 36.0001 24.456 36.0001 25.5991H32.8001V19.9991C32.8001 19.787 32.7158 19.5834 32.5658 19.4334C32.4158 19.2834 32.2122 19.1991 32.0001 19.1991H31.2001C30.6283 19.1991 30.1001 18.8941 29.8144 18.3991C29.5287 17.9041 29.5287 17.2941 29.8144 16.7991C30.1001 16.3041 30.6283 15.9991 31.2001 15.9991H32.0001C32.2122 15.9991 32.4158 15.9148 32.5658 15.7649C32.7158 15.6148 32.8001 15.4112 32.8001 15.1991V11.2338C35.6604 11.3995 38.3787 12.5351 40.5072 14.453C43.6505 17.2545 45.2186 21.4202 44.704 25.5991H42.4001Z" fill="black"/>
<path d="M52.8 2.39999C51.7392 2.39999 50.7218 2.82142 49.9714 3.57138C49.2214 4.32173 48.8 5.33924 48.8 6.39999C48.8 7.46075 49.2214 8.47817 49.9714 9.22861C50.7217 9.9786 51.7392 10.4 52.8 10.4C53.8607 10.4 54.8782 9.9786 55.6286 9.22861C56.3786 8.47826 56.8 7.46075 56.8 6.39999C56.7989 5.33961 56.3768 4.32283 55.6271 3.57284C54.8772 2.8232 53.8604 2.40109 52.8 2.39999ZM52.8 8.79999C52.1636 8.79999 51.5528 8.54714 51.1029 8.09714C50.653 7.64713 50.4 7.03638 50.4 6.40004C50.4 5.7637 50.6529 5.15286 51.1029 4.70294C51.5529 4.25302 52.1636 4.00009 52.8 4.00009C53.4363 4.00009 54.0472 4.25294 54.4971 4.70294C54.947 5.15294 55.2 5.7637 55.2 6.40004C55.1993 7.03647 54.946 7.64648 54.4964 8.0965C54.0463 8.54614 53.4363 8.79935 52.7999 8.80007L52.8 8.79999Z" fill="black"/>
<path d="M44.2834 35.4423L45.3174 34.2205L48.5174 36.9284L47.4834 38.1501L44.2834 35.4423Z" fill="black"/>
<path d="M14.6825 10.3954L15.7161 9.17368L19.7165 12.5576L18.6829 13.7794L14.6825 10.3954Z" fill="black"/>
<path d="M43.7733 12.9893L48.5008 8.98926L49.5347 10.211L44.8072 14.211L43.7733 12.9893Z" fill="black"/>
<path d="M14.4649 37.7893L18.6831 34.2211L19.7167 35.4428L15.4985 39.011L14.4649 37.7893Z" fill="black"/>
<path d="M56 37.6H49.6C49.3879 37.6 49.1843 37.6843 49.0342 37.8342C48.8843 37.9843 48.8 38.1879 48.8 38.4V44.8C48.8 45.0121 48.8843 45.2157 49.0342 45.3658C49.1843 45.5157 49.3879 45.6 49.6 45.6H56C56.2121 45.6 56.4157 45.5157 56.5657 45.3658C56.7157 45.2157 56.8 45.0121 56.8 44.8V38.4C56.8 38.1879 56.7157 37.9843 56.5657 37.8342C56.4157 37.6843 56.2121 37.6 56 37.6ZM55.2 44H50.4V39.2H55.2V44Z" fill="black"/>
<path d="M12.2971 38.0078C12.1435 37.7724 11.881 37.6302 11.6 37.6302C11.3189 37.6302 11.0564 37.7724 10.9028 38.0078L7.30284 44.4078C7.1632 44.6553 7.16605 44.9584 7.30926 45.2038C7.45283 45.4492 7.71569 45.5999 7.99998 45.5999H15.2C15.4842 45.5999 15.7471 45.4492 15.8907 45.2038C16.0339 44.9584 16.0367 44.6553 15.8971 44.4078L12.2971 38.0078ZM9.36784 43.9999L11.6 40.0321L13.8321 43.9999H9.36784Z" fill="black"/>
<path d="M14.5207 4.85394L12.7318 4.58037L11.9243 2.86005C11.7925 2.57934 11.5104 2.40005 11.2 2.40005C10.8896 2.40005 10.6075 2.57934 10.4757 2.86005L9.66819 4.58037L7.87932 4.85394C7.58289 4.89894 7.33682 5.10644 7.24146 5.39073C7.1461 5.67502 7.21789 5.98859 7.42754 6.20323L8.74539 7.5539L8.43289 9.47109C8.38324 9.77353 8.5111 10.0775 8.76146 10.2539C9.01218 10.4304 9.34143 10.4482 9.60931 10.3L11.2 9.42107L12.7907 10.3C13.0585 10.4482 13.3878 10.4304 13.6385 10.2539C13.8889 10.0775 14.0167 9.77353 13.9671 9.47109L13.6546 7.5539L14.9724 6.20323C15.1821 5.98858 15.2538 5.67502 15.1585 5.39073C15.0631 5.10644 14.8171 4.89894 14.5207 4.85394ZM12.2275 6.72576C12.05 6.90755 11.9696 7.1629 12.0107 7.41326L12.1231 8.10326L11.5871 7.80719C11.3464 7.67362 11.0535 7.67362 10.8128 7.80719L10.2767 8.10326L10.3892 7.41326C10.4303 7.1629 10.35 6.90755 10.1724 6.72576L9.65997 6.20076L10.3321 6.09755C10.5956 6.05755 10.8221 5.88861 10.9353 5.64683L11.2 5.08361L11.4642 5.64683C11.5778 5.88861 11.8042 6.05755 12.0678 6.09755L12.7399 6.20076L12.2275 6.72576Z" fill="black"/>
</svg>
