<svg width="83" height="83" viewBox="0 0 83 83" fill="none" xmlns="http://www.w3.org/2000/svg">
<path d="M27.7615 63.1254C27.7615 63.4496 27.3766 63.709 26.8913 63.709C26.3391 63.7576 25.9543 63.4982 25.9543 63.1254C25.9543 62.8012 26.3391 62.5418 26.8244 62.5418C27.3264 62.4932 27.7615 62.7526 27.7615 63.1254ZM22.5572 62.3959C22.4401 62.7201 22.7748 63.0929 23.2769 63.1902C23.7119 63.3523 24.2139 63.1902 24.3144 62.866C24.4147 62.5418 24.0968 62.1689 23.5947 62.0231C23.1597 61.9095 22.6744 62.0717 22.5572 62.3959ZM29.9536 62.1203C29.4683 62.2338 29.1337 62.5418 29.1839 62.9147C29.2341 63.2389 29.6692 63.4496 30.1712 63.3361C30.6565 63.2227 30.9911 62.9147 30.9409 62.5905C30.8907 62.2825 30.4389 62.0717 29.9536 62.1203ZM40.9645 0C17.7546 0 0 17.0701 0 39.5547C0 57.5326 11.6803 72.9168 28.3639 78.3312C30.5058 78.7041 31.2589 77.4235 31.2589 76.3697C31.2589 75.3647 31.2087 69.8205 31.2087 66.4162C31.2087 66.4162 19.495 68.8478 17.0351 61.5853C17.0351 61.5853 15.1274 56.8679 12.3831 55.6522C12.3831 55.6522 8.55099 53.1071 12.6508 53.1557C12.6508 53.1557 16.8175 53.4799 19.1101 57.3381C22.7748 63.5955 28.9161 61.7961 31.3091 60.7262C31.694 58.1325 32.7817 56.333 33.9865 55.2631C24.6322 54.258 15.1944 52.945 15.1944 37.35C15.1944 32.892 16.4661 30.6549 19.1435 27.8018C18.7084 26.7481 17.2861 22.4035 19.5786 16.7946C23.076 15.7408 31.125 21.1715 31.125 21.1715C34.4718 20.2637 38.0695 19.7936 41.6339 19.7936C45.1981 19.7936 48.7959 20.2637 52.1428 21.1715C52.1428 21.1715 60.1918 15.7246 63.6891 16.7946C65.9817 22.4197 64.5593 26.7481 64.1242 27.8018C66.8016 30.6711 68.4416 32.9082 68.4416 37.35C68.4416 52.9936 58.5853 54.2418 49.231 55.2631C50.7706 56.5438 52.0758 58.9754 52.0758 62.7849C52.0758 68.2481 52.0256 75.008 52.0256 76.3373C52.0256 77.391 52.7954 78.6717 54.9206 78.2988C71.6545 72.9168 83 57.5326 83 39.5547C83 17.0701 64.1744 0 40.9645 0ZM16.2653 55.9115C16.0478 56.0736 16.098 56.4465 16.3825 56.7545C16.6502 57.0139 17.0351 57.1273 17.2526 56.9166C17.4702 56.7545 17.42 56.3817 17.1355 56.0736C16.8678 55.8143 16.4829 55.7008 16.2653 55.9115ZM14.4581 54.5985C14.3409 54.8092 14.5082 55.0686 14.843 55.2307C15.1106 55.3928 15.4454 55.3442 15.5625 55.1172C15.6796 54.9064 15.5123 54.647 15.1776 54.4849C14.843 54.3877 14.5752 54.4363 14.4581 54.5985ZM19.8798 60.3695C19.6121 60.5803 19.7125 61.0666 20.0974 61.3746C20.4822 61.7474 20.9675 61.7961 21.1851 61.5367C21.4026 61.326 21.3022 60.8397 20.9675 60.5317C20.5994 60.1588 20.0974 60.1102 19.8798 60.3695ZM17.9722 57.9865C17.7044 58.1486 17.7044 58.5701 17.9722 58.9429C18.2399 59.3158 18.6918 59.478 18.9093 59.3158C19.177 59.105 19.177 58.6836 18.9093 58.3107C18.675 57.9379 18.2399 57.7758 17.9722 57.9865Z" fill="#BB5A3A"/>
</svg>
