<svg width="83" height="83" viewBox="0 0 83 83" fill="none" xmlns="http://www.w3.org/2000/svg">
<path d="M41.5091 20.2199C29.7328 20.2199 20.2338 29.7209 20.2338 41.5C20.2338 53.2791 29.7328 62.7801 41.5091 62.7801C53.2858 62.7801 62.7848 53.2791 62.7848 41.5C62.7848 29.7209 53.2858 20.2199 41.5091 20.2199ZM41.5091 55.335C33.8989 55.335 27.6774 49.1304 27.6774 41.5C27.6774 33.8696 33.8806 27.6651 41.5091 27.6651C49.1379 27.6651 55.3411 33.8696 55.3411 41.5C55.3411 49.1304 49.1194 55.335 41.5091 55.335ZM68.6175 19.3494C68.6175 22.109 66.3953 24.3129 63.6549 24.3129C60.896 24.3129 58.6926 22.0905 58.6926 19.3494C58.6926 16.6083 60.9145 14.3859 63.6549 14.3859C66.3953 14.3859 68.6175 16.6083 68.6175 19.3494ZM82.7084 24.387C82.3935 17.7381 80.8752 11.8486 76.0053 6.99615C71.154 2.14376 65.266 0.625071 58.6185 0.291699C51.7674 -0.0972328 31.2327 -0.0972328 24.3815 0.291699C17.7526 0.606551 11.8644 2.12524 6.9946 6.97764C2.12477 11.83 0.624929 17.7196 0.291634 24.3685C-0.0972113 31.221 -0.0972113 51.7605 0.291634 58.6129C0.606415 65.2618 2.12477 71.1515 6.9946 76.0039C11.8644 80.8561 17.7341 82.375 24.3815 82.7084C31.2327 83.0971 51.7674 83.0971 58.6185 82.7084C65.266 82.3935 71.154 80.8746 76.0053 76.0039C80.8567 71.1515 82.375 65.2618 82.7084 58.6129C83.0971 51.7605 83.0971 31.2395 82.7084 24.387ZM73.8576 65.9657C72.4134 69.5957 69.6173 72.3924 65.9695 73.8553C60.5073 76.0224 47.5457 75.5223 41.5091 75.5223C35.4728 75.5223 22.4928 76.0039 17.049 73.8553C13.4198 72.4109 10.6238 69.6143 9.16104 65.9657C6.9946 60.502 7.49454 47.5377 7.49454 41.5C7.49454 35.4623 7.01311 22.4794 9.16104 17.0343C10.6053 13.4043 13.4013 10.6076 17.049 9.14453C22.5113 6.97762 35.4728 7.47769 41.5091 7.47769C47.5457 7.47769 60.5255 6.99615 65.9695 9.14453C69.5988 10.5891 72.3948 13.3857 73.8576 17.0343C76.0239 22.4979 75.5239 35.4623 75.5239 41.5C75.5239 47.5377 76.0239 60.5205 73.8576 65.9657Z" fill="#BB5A3A"/>
</svg>
